<?xml version="1.0" standalone="no"?>
<!DOCTYPE svg PUBLIC "-//W3C//DTD SVG 20010904//EN"
 "http://www.w3.org/TR/2001/REC-SVG-20010904/DTD/svg10.dtd">
<svg version="1.0" xmlns="http://www.w3.org/2000/svg"
 width="1032.000000pt" height="1031.000000pt" viewBox="0 0 1032.000000 1031.000000"
 preserveAspectRatio="xMidYMid meet">

<g transform="translate(0.000000,1031.000000) scale(0.100000,-0.100000)"
fill="#000000" stroke="none">
<path d="M6915 8523 c-44 -2 -154 -10 -245 -18 -968 -89 -1982 -432 -2984
-1010 -1378 -793 -2398 -1878 -2756 -2931 -187 -548 -181 -1075 19 -1498 129
-275 400 -569 678 -736 116 -70 118 -70 139 47 19 112 48 199 88 266 l35 57
-55 38 c-156 106 -273 221 -362 357 -42 63 -101 174 -108 200 -1 6 -8 24 -15
40 -6 17 -13 35 -15 40 -68 260 -78 434 -39 681 78 492 365 1042 824 1579 336
393 747 761 1227 1098 658 462 1448 851 2170 1071 402 122 760 197 1159 243
215 24 698 24 890 0 412 -53 743 -165 999 -340 440 -301 611 -793 480 -1387
-200 -907 -1008 -1892 -2207 -2689 -174 -116 -247 -161 -489 -305 -117 -69
-573 -294 -748 -369 -684 -292 -1356 -468 -1988 -518 -181 -15 -177 -12 -163
-123 10 -81 1 -190 -22 -279 -21 -81 -20 -81 160 -67 1384 107 2907 741 4118
1714 596 478 1124 1069 1407 1573 170 303 288 600 358 898 48 206 55 273 55
530 -1 211 -3 252 -23 344 -13 58 -26 110 -30 115 -3 6 -8 21 -10 34 -1 12 -7
33 -11 45 -5 12 -8 24 -8 27 0 3 -6 16 -13 30 -8 14 -15 31 -16 39 -4 22 -82
180 -121 246 -137 227 -374 457 -608 591 -47 27 -245 124 -247 122 -2 -2 -20
8 -40 20 -21 13 -38 21 -38 18 0 -4 -10 0 -23 9 -12 8 -34 17 -47 19 -14 2
-26 5 -27 7 -2 1 -7 3 -13 4 -5 1 -12 4 -15 5 -3 1 -9 4 -15 5 -5 1 -12 4 -15
5 -3 1 -8 3 -12 5 -5 1 -15 5 -23 8 -8 4 -24 8 -35 10 -11 1 -26 6 -33 11 -7
4 -16 5 -19 2 -3 -3 -12 -1 -20 5 -7 6 -13 8 -13 4 0 -4 -6 -3 -13 3 -7 6 -29
13 -48 15 -19 2 -39 6 -45 9 -5 4 -30 10 -54 13 -54 8 -96 15 -130 21 -98 18
-251 35 -405 44 -170 9 -253 10 -440 3z"/>
<path d="M7830 6514 c-71 -53 -170 -104 -255 -133 -117 -39 -120 -43 -106
-123 81 -469 -299 -1129 -964 -1672 -561 -457 -1257 -795 -1934 -937 -106 -22
-114 -24 -186 -35 -27 -4 -57 -8 -65 -10 -78 -13 -211 -19 -395 -19 -185 1
-238 4 -330 23 -466 93 -720 327 -751 694 -13 151 52 398 160 612 62 123 63
127 54 173 -6 27 -11 131 -12 233 -1 163 4 239 19 330 18 101 18 118 -3 129
-17 9 -26 4 -64 -37 -237 -256 -444 -599 -546 -907 -127 -383 -112 -739 45
-1025 114 -210 344 -423 566 -525 698 -323 1791 -191 2812 339 528 274 903
543 1270 911 343 343 566 667 706 1025 30 76 76 235 84 287 2 15 9 55 15 88
16 93 5 353 -19 458 -21 93 -39 138 -56 144 -6 2 -26 -8 -45 -23z"/>
</g>
</svg>
