<?xml version="1.0" standalone="no"?>
<!DOCTYPE svg PUBLIC "-//W3C//DTD SVG 20010904//EN"
 "http://www.w3.org/TR/2001/REC-SVG-20010904/DTD/svg10.dtd">
<svg version="1.0" xmlns="http://www.w3.org/2000/svg"
 width="1032.000000pt" height="1031.000000pt" viewBox="0 0 1032.000000 1031.000000"
 preserveAspectRatio="xMidYMid meet">

<g transform="translate(0.000000,1031.000000) scale(0.100000,-0.100000)"
fill="#000000" stroke="none">
<path d="M6990 8503 c-929 -27 -1938 -308 -2905 -807 -790 -409 -1413 -849
-1964 -1391 -383 -377 -664 -730 -887 -1116 -450 -780 -545 -1533 -268 -2119
137 -289 379 -553 663 -724 99 -59 111 -60 111 -6 0 56 37 181 80 266 l46 92
-80 53 c-96 63 -256 219 -315 306 -245 366 -284 796 -119 1312 290 909 1208
1921 2403 2651 1471 898 3141 1272 4260 954 402 -114 687 -301 878 -575 82
-117 140 -248 178 -399 30 -121 38 -392 15 -546 -130 -884 -908 -1904 -2081
-2726 -349 -245 -674 -438 -1040 -618 -839 -413 -1691 -655 -2470 -703 -34 -2
-40 -5 -37 -22 14 -92 13 -219 -2 -293 -9 -45 -19 -89 -22 -97 -8 -20 50 -20
261 0 1147 110 2382 577 3481 1316 626 421 1194 943 1604 1474 406 525 668
1134 721 1673 14 146 6 420 -16 542 -80 438 -347 837 -730 1092 -345 228 -851
378 -1360 403 -195 9 -304 11 -405 8z"/>
<path d="M7180 7582 c-199 -66 -326 -272 -292 -473 49 -285 353 -444 609 -318
323 157 320 609 -5 770 -59 29 -78 33 -162 36 -71 2 -109 -1 -150 -15z"/>
<path d="M4860 6965 c-374 -62 -679 -259 -886 -572 -137 -208 -207 -444 -207
-703 0 -340 122 -645 356 -886 251 -261 572 -396 937 -396 205 0 370 38 555
127 447 216 724 658 725 1155 1 615 -427 1137 -1035 1265 -109 23 -336 28
-445 10z"/>
<path d="M7830 6488 c-54 -45 -167 -104 -258 -134 l-83 -28 8 -55 c15 -102 7
-269 -17 -371 -58 -247 -198 -512 -411 -780 -100 -126 -387 -417 -519 -525
-599 -495 -1336 -851 -2035 -985 -358 -68 -767 -68 -1034 0 -200 51 -339 126
-461 249 -68 68 -94 104 -127 171 -120 244 -90 545 89 891 l60 117 -12 97
c-16 123 -8 428 14 549 9 49 15 90 14 92 -5 4 -158 -180 -214 -256 -326 -445
-491 -931 -445 -1305 50 -408 283 -721 672 -904 245 -115 468 -160 830 -168
184 -4 271 -2 390 12 716 79 1447 362 2149 830 1068 713 1657 1696 1459 2434
-28 104 -28 104 -69 69z"/>
<path d="M2459 2645 c-252 -81 -376 -357 -266 -590 127 -266 475 -332 682
-129 217 212 162 556 -112 694 -61 30 -78 34 -163 37 -64 2 -110 -2 -141 -12z"/>
</g>
</svg>
